<svg width="334" height="52" viewBox="0 0 134 32" fill="none" xmlns="http://www.w3.org/2000/svg">
  <path d="M54.1992 11.8113H50.6523V21.5925H48.6914V11.8113H45.1758V10.2175H54.1992V11.8113Z" fill="white"/>
  <path d="M59.4258 14.8738C59.1758 14.8321 58.918 14.8113 58.6523 14.8113C57.7826 14.8113 57.1966 15.1446 56.8945 15.8113V21.5925H54.9961V13.1394H56.8086L56.8555 14.0847C57.3138 13.3503 57.9492 12.9832 58.7617 12.9832C59.0326 12.9832 59.2565 13.0196 59.4336 13.0925L59.4258 14.8738Z" fill="white"/>
  <path d="M63.7227 18.8738L65.4414 13.1394H67.4648L64.1055 22.8738C63.5898 24.2957 62.7148 25.0066 61.4805 25.0066C61.2044 25.0066 60.8997 24.9597 60.5664 24.866V23.3972L60.9258 23.4207C61.4049 23.4207 61.7643 23.3321 62.0039 23.155C62.2487 22.9832 62.4414 22.6915 62.582 22.28L62.8555 21.5535L59.8867 13.1394H61.9336L63.7227 18.8738Z" fill="white"/>
  <path d="M71.3086 10.2175L74.5898 18.9363L77.8633 10.2175H80.418V21.5925H78.4492V17.8425L78.6445 12.8269L75.2852 21.5925H73.8711L70.5195 12.8347L70.7148 17.8425V21.5925H68.7461V10.2175H71.3086Z" fill="white"/>
  <path d="M85.5352 18.8738L87.2539 13.1394H89.2773L85.918 22.8738C85.4023 24.2957 84.5273 25.0066 83.293 25.0066C83.0169 25.0066 82.7122 24.9597 82.3789 24.866V23.3972L82.7383 23.4207C83.2174 23.4207 83.5768 23.3321 83.8164 23.155C84.0612 22.9832 84.2539 22.6915 84.3945 22.28L84.668 21.5535L81.6992 13.1394H83.7461L85.5352 18.8738Z" fill="white"/>
  <path d="M96.5039 18.6628C96.5039 18.1628 96.3268 17.7774 95.9727 17.5066C95.6237 17.2358 94.9909 16.9623 94.0742 16.6863C93.1576 16.4102 92.4284 16.1029 91.8867 15.7644C90.8503 15.1134 90.332 14.2644 90.332 13.2175C90.332 12.3009 90.7044 11.5457 91.4492 10.9519C92.1992 10.3582 93.1706 10.0613 94.3633 10.0613C95.1549 10.0613 95.8607 10.2071 96.4805 10.4988C97.1003 10.7904 97.5872 11.2071 97.9414 11.7488C98.2956 12.2852 98.4727 12.8816 98.4727 13.5378H96.5039C96.5039 12.9441 96.3164 12.4806 95.9414 12.1472C95.5716 11.8087 95.0404 11.6394 94.3477 11.6394C93.7018 11.6394 93.1992 11.7774 92.8398 12.0535C92.4857 12.3295 92.3086 12.7149 92.3086 13.2097C92.3086 13.6264 92.5013 13.9753 92.8867 14.2566C93.2721 14.5326 93.9076 14.8035 94.793 15.0691C95.6784 15.3295 96.3893 15.629 96.9258 15.9675C97.4622 16.3009 97.8555 16.6863 98.1055 17.1238C98.3555 17.5561 98.4805 18.0639 98.4805 18.6472C98.4805 19.5951 98.1159 20.3503 97.3867 20.9128C96.6628 21.4701 95.6784 21.7488 94.4336 21.7488C93.6107 21.7488 92.8529 21.5977 92.1602 21.2957C91.4727 20.9884 90.9362 20.5665 90.5508 20.03C90.1706 19.4936 89.9805 18.8686 89.9805 18.155H91.957C91.957 18.8009 92.1706 19.3009 92.5977 19.655C93.0247 20.0092 93.6367 20.1863 94.4336 20.1863C95.1211 20.1863 95.6367 20.0483 95.9805 19.7722C96.3294 19.491 96.5039 19.1212 96.5039 18.6628Z" fill="white"/>
  <path d="M107.434 17.4519C107.434 18.7592 107.137 19.8035 106.543 20.5847C105.949 21.3608 105.152 21.7488 104.152 21.7488C103.225 21.7488 102.483 21.4441 101.926 20.8347V24.8425H100.027V13.1394H101.777L101.855 13.9988C102.413 13.3217 103.171 12.9832 104.129 12.9832C105.16 12.9832 105.967 13.3686 106.551 14.1394C107.139 14.905 107.434 15.9701 107.434 17.3347V17.4519ZM105.543 17.2878C105.543 16.4441 105.374 15.7748 105.035 15.28C104.702 14.7852 104.223 14.5378 103.598 14.5378C102.822 14.5378 102.264 14.8582 101.926 15.4988V19.2488C102.27 19.905 102.832 20.2332 103.613 20.2332C104.217 20.2332 104.689 19.991 105.027 19.5066C105.371 19.017 105.543 18.2774 105.543 17.2878Z" fill="white"/>
  <path d="M112.77 21.7488C111.566 21.7488 110.59 21.3712 109.84 20.616C109.095 19.8556 108.723 18.8451 108.723 17.5847V17.3503C108.723 16.5066 108.884 15.754 109.207 15.0925C109.535 14.4259 109.993 13.9076 110.582 13.5378C111.171 13.1681 111.827 12.9832 112.551 12.9832C113.702 12.9832 114.59 13.3503 115.215 14.0847C115.845 14.8191 116.16 15.8582 116.16 17.2019V17.9675H110.637C110.694 18.6654 110.926 19.2175 111.332 19.6238C111.743 20.03 112.259 20.2332 112.879 20.2332C113.749 20.2332 114.457 19.8816 115.004 19.1785L116.027 20.155C115.689 20.6602 115.236 21.0535 114.668 21.3347C114.105 21.6108 113.473 21.7488 112.77 21.7488ZM112.543 14.5066C112.022 14.5066 111.6 14.6889 111.277 15.0535C110.96 15.4181 110.757 15.9259 110.668 16.5769H114.285V16.4363C114.243 15.8009 114.074 15.3217 113.777 14.9988C113.48 14.6707 113.069 14.5066 112.543 14.5066Z" fill="white"/>
  <path d="M121.363 21.7488C120.16 21.7488 119.184 21.3712 118.434 20.616C117.689 19.8556 117.316 18.8451 117.316 17.5847V17.3503C117.316 16.5066 117.478 15.754 117.801 15.0925C118.129 14.4259 118.587 13.9076 119.176 13.5378C119.764 13.1681 120.421 12.9832 121.145 12.9832C122.296 12.9832 123.184 13.3503 123.809 14.0847C124.439 14.8191 124.754 15.8582 124.754 17.2019V17.9675H119.23C119.288 18.6654 119.52 19.2175 119.926 19.6238C120.337 20.03 120.853 20.2332 121.473 20.2332C122.342 20.2332 123.051 19.8816 123.598 19.1785L124.621 20.155C124.283 20.6602 123.829 21.0535 123.262 21.3347C122.699 21.6108 122.066 21.7488 121.363 21.7488ZM121.137 14.5066C120.616 14.5066 120.194 14.6889 119.871 15.0535C119.553 15.4181 119.35 15.9259 119.262 16.5769H122.879V16.4363C122.837 15.8009 122.668 15.3217 122.371 14.9988C122.074 14.6707 121.663 14.5066 121.137 14.5066Z" fill="white"/>
  <path d="M125.879 17.3035C125.879 16.0014 126.181 14.9571 126.785 14.1707C127.389 13.379 128.199 12.9832 129.215 12.9832C130.111 12.9832 130.835 13.2957 131.387 13.9207V9.59253H133.285V21.5925H131.566L131.473 20.7175C130.905 21.405 130.147 21.7488 129.199 21.7488C128.21 21.7488 127.408 21.3503 126.793 20.5535C126.184 19.7566 125.879 18.6733 125.879 17.3035ZM127.777 17.4675C127.777 18.3269 127.941 18.9988 128.27 19.4832C128.603 19.9623 129.074 20.2019 129.684 20.2019C130.46 20.2019 131.027 19.8556 131.387 19.1628V15.5535C131.038 14.8764 130.475 14.5378 129.699 14.5378C129.085 14.5378 128.611 14.7826 128.277 15.2722C127.944 15.7566 127.777 16.4884 127.777 17.4675Z" fill="white"/>
  <path d="M14.1622 16.9948C14.1875 17.0453 14.2128 17.0706 14.2633 17.0958C14.7434 17.6518 15.5015 17.9044 16.2342 17.7781L17.0176 17.6518L32.1281 15.3271L16.9923 13.4825L16.0321 13.3561C15.4762 13.2803 14.9203 13.4319 14.4907 13.7857C14.4907 13.7857 14.4654 13.7857 14.4654 13.811C13.5558 14.6195 13.4294 16.0346 14.1622 16.9948Z" fill="white"/>
  <path d="M0.871094 15.5797C0.871094 20.8861 3.52428 25.5608 7.56722 28.3908C10.0941 30.1343 13.1263 31.1703 16.4364 31.1703C21.1111 31.1703 25.3056 29.0983 28.161 25.8387L21.9955 22.478C20.4794 23.7162 18.5337 24.449 16.4364 24.449C11.5344 24.449 7.56722 20.4818 7.56722 15.5797C7.56722 10.6777 11.5344 6.71053 16.4364 6.71053H29.2475C29.4244 6.71053 29.6013 6.71053 29.7529 6.71053C34.1243 6.71053 37.8388 3.90574 39.178 0.0144043H16.4364C13.1515 0.0144043 10.0941 1.02514 7.56722 2.79393C6.02585 3.8552 4.68662 5.19443 3.62535 6.7358C1.88183 9.23737 0.871094 12.2948 0.871094 15.5797Z" fill="white"/>
</svg>
