<svg width="518" height="67" viewBox="0 0 518 67" fill="none" xmlns="http://www.w3.org/2000/svg">
  <path d="M7.29688 52H0.828125V2.94531H7.29688V52ZM16.6631 33.4697C16.6631 27.877 17.9883 23.3848 20.6387 19.9932C23.2891 16.5791 26.7593 14.8721 31.0493 14.8721C35.3169 14.8721 38.6973 16.332 41.1904 19.252V0.25H47.4233V52H41.6958L41.3926 48.0918C38.8994 51.1465 35.4292 52.6738 30.9819 52.6738C26.7593 52.6738 23.3115 50.9443 20.6387 47.4854C17.9883 44.0264 16.6631 39.5117 16.6631 33.9414V33.4697ZM22.896 34.1772C22.896 38.3101 23.7495 41.5444 25.4565 43.8804C27.1636 46.2163 29.522 47.3843 32.5317 47.3843C36.4849 47.3843 39.3711 45.6099 41.1904 42.061V25.3164C39.3262 21.8799 36.4624 20.1616 32.5991 20.1616C29.5444 20.1616 27.1636 21.3408 25.4565 23.6992C23.7495 26.0576 22.896 29.5503 22.896 34.1772ZM63.8984 52H57.6655V15.5459H63.8984V52ZM57.1602 5.87646C57.1602 4.86572 57.4634 4.01221 58.0698 3.31592C58.6987 2.61963 59.6196 2.27148 60.8325 2.27148C62.0454 2.27148 62.9663 2.61963 63.5952 3.31592C64.2241 4.01221 64.5386 4.86572 64.5386 5.87646C64.5386 6.88721 64.2241 7.72949 63.5952 8.40332C62.9663 9.07715 62.0454 9.41406 60.8325 9.41406C59.6196 9.41406 58.6987 9.07715 58.0698 8.40332C57.4634 7.72949 57.1602 6.88721 57.1602 5.87646ZM72.2539 33.436C72.2539 29.8647 72.9502 26.6528 74.3428 23.8003C75.7578 20.9478 77.7119 18.7466 80.2051 17.1968C82.7207 15.647 85.5845 14.8721 88.7964 14.8721C93.7603 14.8721 97.7695 16.5903 100.824 20.0269C103.901 23.4634 105.44 28.0342 105.44 33.7393V34.1772C105.44 37.7261 104.755 40.9155 103.385 43.7456C102.037 46.5532 100.094 48.7432 97.5562 50.3154C95.0405 51.8877 92.1431 52.6738 88.8638 52.6738C83.9224 52.6738 79.9131 50.9556 76.8359 47.519C73.7812 44.0825 72.2539 39.5342 72.2539 33.874V33.436ZM78.5205 34.1772C78.5205 38.2202 79.4526 41.4658 81.3169 43.9141C83.2036 46.3623 85.7192 47.5864 88.8638 47.5864C92.0308 47.5864 94.5464 46.3511 96.4106 43.8804C98.2749 41.3872 99.207 37.9058 99.207 33.436C99.207 29.438 98.2524 26.2036 96.3433 23.7329C94.4565 21.2397 91.9409 19.9932 88.7964 19.9932C85.7192 19.9932 83.2373 21.2173 81.3506 23.6655C79.4639 26.1138 78.5205 29.6177 78.5205 34.1772ZM119.119 15.5459L119.287 19.5889C121.96 16.4443 125.565 14.8721 130.102 14.8721C135.201 14.8721 138.671 16.8262 140.513 20.7344C141.726 18.9824 143.298 17.5674 145.229 16.4893C147.184 15.4111 149.486 14.8721 152.136 14.8721C160.132 14.8721 164.198 19.106 164.333 27.5737V52H158.1V27.9443C158.1 25.3389 157.504 23.396 156.314 22.1157C155.124 20.813 153.125 20.1616 150.317 20.1616C148.003 20.1616 146.083 20.8579 144.556 22.2505C143.028 23.6206 142.141 25.4736 141.894 27.8096V52H135.627V28.1128C135.627 22.812 133.033 20.1616 127.845 20.1616C123.757 20.1616 120.96 21.9023 119.456 25.3838V52H113.223V15.5459H119.119ZM196.272 52C195.913 51.2812 195.621 50.001 195.396 48.1592C192.499 51.1689 189.04 52.6738 185.019 52.6738C181.425 52.6738 178.472 51.6631 176.158 49.6416C173.867 47.5977 172.722 45.0146 172.722 41.8926C172.722 38.0967 174.159 35.1543 177.034 33.0654C179.932 30.9541 183.997 29.8984 189.23 29.8984H195.295V27.0347C195.295 24.856 194.644 23.1265 193.341 21.8462C192.038 20.5435 190.118 19.8921 187.58 19.8921C185.356 19.8921 183.492 20.4536 181.987 21.5767C180.482 22.6997 179.729 24.0586 179.729 25.6533H173.463C173.463 23.834 174.103 22.082 175.383 20.3975C176.686 18.6904 178.438 17.3428 180.639 16.3545C182.863 15.3662 185.3 14.8721 187.95 14.8721C192.15 14.8721 195.441 15.9277 197.822 18.0391C200.203 20.1279 201.438 23.0142 201.528 26.6978V43.4761C201.528 46.8228 201.955 49.4844 202.808 51.4609V52H196.272ZM185.929 47.2495C187.883 47.2495 189.736 46.7441 191.488 45.7334C193.24 44.7227 194.509 43.4087 195.295 41.7915V34.312H190.41C182.773 34.312 178.955 36.5469 178.955 41.0166C178.955 42.9707 179.606 44.498 180.909 45.5986C182.211 46.6992 183.885 47.2495 185.929 47.2495ZM219.755 6.71875V15.5459H226.561V20.3638H219.755V42.9707C219.755 44.4307 220.058 45.5312 220.665 46.2725C221.271 46.9912 222.304 47.3506 223.764 47.3506C224.483 47.3506 225.471 47.2158 226.729 46.9463V52C225.089 52.4492 223.495 52.6738 221.945 52.6738C219.16 52.6738 217.06 51.8315 215.645 50.147C214.229 48.4624 213.522 46.0703 213.522 42.9707V20.3638H206.885V15.5459H213.522V6.71875H219.755ZM240.644 52H234.411V15.5459H240.644V52ZM233.905 5.87646C233.905 4.86572 234.208 4.01221 234.815 3.31592C235.444 2.61963 236.365 2.27148 237.578 2.27148C238.791 2.27148 239.711 2.61963 240.34 3.31592C240.969 4.01221 241.284 4.86572 241.284 5.87646C241.284 6.88721 240.969 7.72949 240.34 8.40332C239.711 9.07715 238.791 9.41406 237.578 9.41406C236.365 9.41406 235.444 9.07715 234.815 8.40332C234.208 7.72949 233.905 6.88721 233.905 5.87646ZM265.272 47.5864C267.496 47.5864 269.438 46.9126 271.101 45.5649C272.763 44.2173 273.684 42.5327 273.863 40.5112H279.759C279.647 42.6001 278.928 44.5879 277.603 46.4746C276.278 48.3613 274.503 49.8662 272.28 50.9893C270.079 52.1123 267.743 52.6738 265.272 52.6738C260.308 52.6738 256.355 51.0229 253.413 47.7212C250.493 44.397 249.033 39.8599 249.033 34.1099V33.0654C249.033 29.5166 249.684 26.3608 250.987 23.5981C252.29 20.8354 254.154 18.6904 256.58 17.1631C259.028 15.6357 261.914 14.8721 265.238 14.8721C269.326 14.8721 272.718 16.0962 275.413 18.5444C278.131 20.9927 279.58 24.1709 279.759 28.0791H273.863C273.684 25.7207 272.785 23.7891 271.168 22.2842C269.573 20.7568 267.597 19.9932 265.238 19.9932C262.071 19.9932 259.612 21.1387 257.86 23.4297C256.13 25.6982 255.266 28.9888 255.266 33.3013V34.4805C255.266 38.6807 256.13 41.915 257.86 44.1836C259.589 46.4521 262.06 47.5864 265.272 47.5864Z" fill="#AC8B62"/>
  <path d="M332.587 29.3257H311.328V46.7104H336.024V52H304.859V2.94531H335.687V8.26855H311.328V24.0361H332.587V29.3257ZM348.995 15.5459L349.197 20.1279C351.982 16.624 355.621 14.8721 360.113 14.8721C367.817 14.8721 371.703 19.2183 371.771 27.9106V52H365.538V27.877C365.515 25.249 364.909 23.3062 363.718 22.0483C362.55 20.7905 360.72 20.1616 358.227 20.1616C356.205 20.1616 354.431 20.7007 352.903 21.7788C351.376 22.8569 350.186 24.272 349.332 26.0239V52H343.099V15.5459H348.995ZM379.688 33.4697C379.688 27.7871 381.002 23.2725 383.63 19.9258C386.258 16.5566 389.739 14.8721 394.074 14.8721C398.521 14.8721 401.992 16.4443 404.485 19.5889L404.788 15.5459H410.482V51.124C410.482 55.8408 409.078 59.5581 406.271 62.2759C403.485 64.9937 399.734 66.3525 395.018 66.3525C392.39 66.3525 389.818 65.791 387.302 64.668C384.787 63.5449 382.866 62.0063 381.541 60.0522L384.775 56.3125C387.448 59.6143 390.716 61.2651 394.58 61.2651C397.612 61.2651 399.97 60.4116 401.655 58.7046C403.362 56.9976 404.215 54.5942 404.215 51.4946V48.3613C401.722 51.2363 398.319 52.6738 394.007 52.6738C389.739 52.6738 386.28 50.9556 383.63 47.519C381.002 44.0825 379.688 39.3994 379.688 33.4697ZM385.955 34.1772C385.955 38.2876 386.797 41.522 388.481 43.8804C390.166 46.2163 392.524 47.3843 395.557 47.3843C399.487 47.3843 402.374 45.5986 404.215 42.0273V25.3838C402.306 21.9023 399.442 20.1616 395.624 20.1616C392.592 20.1616 390.222 21.3408 388.515 23.6992C386.808 26.0576 385.955 29.5503 385.955 34.1772ZM426.688 52H420.455V0.25H426.688V52ZM443.466 52H437.233V15.5459H443.466V52ZM436.728 5.87646C436.728 4.86572 437.031 4.01221 437.637 3.31592C438.266 2.61963 439.187 2.27148 440.4 2.27148C441.613 2.27148 442.534 2.61963 443.163 3.31592C443.792 4.01221 444.106 4.86572 444.106 5.87646C444.106 6.88721 443.792 7.72949 443.163 8.40332C442.534 9.07715 441.613 9.41406 440.4 9.41406C439.187 9.41406 438.266 9.07715 437.637 8.40332C437.031 7.72949 436.728 6.88721 436.728 5.87646ZM474.698 42.3306C474.698 40.646 474.058 39.3433 472.777 38.4224C471.52 37.479 469.307 36.6704 466.14 35.9966C462.996 35.3228 460.491 34.5142 458.627 33.5708C456.785 32.6274 455.415 31.5044 454.517 30.2017C453.641 28.8989 453.203 27.3491 453.203 25.5522C453.203 22.5649 454.46 20.0381 456.976 17.9717C459.514 15.9053 462.749 14.8721 466.679 14.8721C470.812 14.8721 474.159 15.939 476.719 18.0728C479.302 20.2065 480.594 22.9355 480.594 26.2598H474.327C474.327 24.5527 473.597 23.0815 472.137 21.8462C470.7 20.6108 468.88 19.9932 466.679 19.9932C464.411 19.9932 462.636 20.4873 461.356 21.4756C460.076 22.4639 459.436 23.7554 459.436 25.3501C459.436 26.855 460.031 27.9893 461.221 28.7529C462.412 29.5166 464.557 30.2466 467.656 30.9429C470.778 31.6392 473.305 32.4702 475.237 33.436C477.168 34.4019 478.595 35.5698 479.516 36.9399C480.459 38.2876 480.931 39.9385 480.931 41.8926C480.931 45.1494 479.628 47.7661 477.022 49.7427C474.417 51.6968 471.037 52.6738 466.881 52.6738C463.961 52.6738 461.378 52.1572 459.132 51.124C456.886 50.0908 455.123 48.6533 453.843 46.8115C452.585 44.9473 451.956 42.937 451.956 40.7808H458.189C458.301 42.8696 459.132 44.5317 460.682 45.7671C462.254 46.98 464.321 47.5864 466.881 47.5864C469.24 47.5864 471.126 47.1147 472.542 46.1714C473.979 45.2056 474.698 43.9253 474.698 42.3306ZM495.283 19.9595C498.046 16.5679 501.64 14.8721 506.064 14.8721C513.769 14.8721 517.654 19.2183 517.722 27.9106V52H511.489V27.877C511.466 25.249 510.86 23.3062 509.669 22.0483C508.501 20.7905 506.671 20.1616 504.178 20.1616C502.156 20.1616 500.382 20.7007 498.854 21.7788C497.327 22.8569 496.137 24.272 495.283 26.0239V52H489.05V0.25H495.283V19.9595Z" fill="#ffffff"/>
</svg>
