<?xml version="1.0" encoding="utf-8"?>
<!-- Generator: Adobe Illustrator 24.1.2, SVG Export Plug-In . SVG Version: 6.00 Build 0)  -->
<svg version="1.1" id="Layer_1" xmlns="http://www.w3.org/2000/svg" xmlns:xlink="http://www.w3.org/1999/xlink" x="0px" y="0px"
	 viewBox="0 0 270 210" style="enable-background:new 0 0 270 210;" xml:space="preserve">
<style type="text/css">
	.st0{opacity:0.1;}
</style>
<g class="st0">
	<path d="M47.4,197.3l-0.6-0.7c2-2,2.1-2.4,0.2-4.6l-8.7-10.2c-1.9-2.2-2.3-2.2-4.6-0.5l-0.7-0.8l7.2-6.2l0.7,0.8
		c-2,2-2.1,2.3-0.2,4.6l8.7,10.2c1.9,2.2,2.3,2.2,4.5,0.5l0.6,0.7L47.4,197.3z"/>
	<path d="M68.2,178.4c-0.5,0.6-2.2,2.7-3.4,4.6l-1.4-1.7l-0.8,2.2c-0.5,1.5-1.1,2.2-1.4,2.5c-2.2,1.9-6.6,2.4-9.7-1.2
		c-3.1-3.6-2.2-9.1,1.4-12.2c0.4-0.3,1.1-0.8,1.9-1.2l-3.1-3.6c-1.4-1.7-1.7-1.6-3.6-0.1l-0.6-0.7c1.3-1.4,2.8-3.4,3.5-4.6
		l13.1,15.3c1.2,1.4,1.5,1.4,2.7,0.6l0.8-0.6L68.2,178.4z M56.6,173.5c-1.4-0.4-2.8,0.1-3.8,0.9c-1.1,1-2.5,3.8,0.7,7.5
		c2.6,3.1,5.8,2.8,7.4,1.4c0.9-0.7,1.4-1.9,1.7-2.8L56.6,173.5z"/>
	<path d="M58.3,161.8c-0.7-0.8-0.6-2,0.2-2.7c0.8-0.7,1.9-0.6,2.6,0.3c0.6,0.7,0.6,1.9-0.2,2.6C60.1,162.6,58.9,162.6,58.3,161.8z
		 M69.8,178.1l-0.6-0.7c1.5-1.6,1.6-1.9,0-3.7l-4.4-5.2c-1.4-1.6-1.6-1.7-3.4-0.6l-0.5-0.6c1.2-1.4,2.3-2.9,3.1-4.3l7.5,8.8
		c1.5,1.8,1.8,1.8,3.7,0.5l0.6,0.7L69.8,178.1z"/>
	<path d="M73.2,155.2c3.3-2.9,8-2.4,10.7,0.7c3.6,4.2,2.1,8.8-0.6,11.1c-3.8,3.2-8.3,2.3-10.8-0.6C68.9,162.3,70.7,157.4,73.2,155.2
		L73.2,155.2z M73.6,156.4c-1.5,1.3-1.6,4,0.9,6.9c2.8,3.3,6.2,4.4,8.4,2.6c1.5-1.3,2-3.5-1.1-7.1C79.1,155.8,75.8,154.5,73.6,156.4
		L73.6,156.4z"/>
	<path d="M104.9,148.1l-0.6-0.7c1.3-1.4,1.5-1.8-0.1-3.6l-3.6-4.2c-1.7-1.9-3.3-2.3-4.8-1c-0.8,0.7-1.4,2-1.7,3.7
		c0.3,0.3,0.6,0.6,1,1l4.2,4.9c1.4,1.6,1.8,1.6,3.3,0.5l0.6,0.7l-5.8,4.9l-0.6-0.7c1.4-1.5,1.6-1.8,0.1-3.5l-3.7-4.4
		c-1.7-1.9-3.2-2.3-4.7-1c-1,0.8-1.4,2.3-1.7,3.6l5.1,6c1.4,1.7,1.8,1.6,3.1,0.8l0.6,0.7l-5.6,4.8l-0.6-0.7c1.6-1.6,1.7-2,0.2-3.7
		l-4.5-5.2c-1.4-1.6-1.6-1.7-3.3-0.7l-0.6-0.7c1-1.1,2.2-2.7,2.9-4.3l1.8,2.1c0.2-0.9,0.4-1.8,0.8-3c0.3-1,0.7-1.9,1.6-2.6
		c1.3-1.1,3.1-1.2,4.7-0.4c0.3-1.2,0.6-2.3,0.9-3.3c0.3-0.8,0.7-1.7,1.4-2.3c2.1-1.8,4.6-1.5,6.9,1.1l4.2,4.9
		c1.5,1.7,1.7,1.6,3.4,0.5l0.6,0.7L104.9,148.1z"/>
	<path d="M120.6,135.1c-0.5,0.4-1.3,0.7-1.8,0.6c-0.6,0-1.1-0.2-1.6-0.5c-0.5,1.6-0.9,3.6-1.7,4.2c-2,1.7-4.6,1.2-6-0.4
		c-1.1-1.3-1.1-2.7,0-4.3c1.2-2,2.5-4.2,2.6-5.1l-0.4-0.5c-1.6-1.8-3.3-2.1-4.5-1c-0.5,0.4-0.7,0.9-0.7,1.4c0,0.6,0.2,1.4,0.7,2.4
		c0.2,0.6,0.1,1-0.3,1.4c-0.5,0.4-1.7,0.5-2.2-0.1c-0.3-0.4-0.3-1-0.1-1.8c0.3-1.2,1.2-3.7,2.4-5.2c0.8-0.7,1.8-1.2,2.7-1.2
		c1.7,0,2.9,0.8,4,2.2l4,4.6c1,1.1,1.8,1.1,2.2,0.7c0.3-0.3,0.5-0.7,0.7-1.1l0.9,0.5L120.6,135.1z M113,130.4
		c-0.3,0.7-0.9,2.1-1.3,2.8c-0.6,1.3-0.8,2.3,0,3.3c1.2,1.4,2.7,1.1,3.5,0.4c0.6-0.5,1.1-1.6,1.2-2.5L113,130.4z"/>
	<path d="M128.4,127.8c-0.3,0.7-0.6,1.1-0.8,1.3c-1.7,1.5-3.6,1.3-5.3-0.7l-6.3-7.4l-1.8,1.5l-0.4-0.2l0.1-1.4l1.2-1l-1.6-1.9
		l0.4-3.4l0.4-0.2l3.1,3.6l2.9-2.5c0.5,0.1,0.9,0.7,0.7,1.2l-2.7,2.4l5.6,6.5c1.8,2.1,3,1.7,3.6,1.1c0.6-0.5,1-1.3,1.2-1.8l0.8,0.5
		L128.4,127.8z"/>
	<path d="M119.8,109.1c-0.7-0.8-0.6-2,0.2-2.7c0.8-0.7,1.9-0.6,2.6,0.3c0.6,0.7,0.6,1.9-0.2,2.6
		C121.6,109.9,120.4,109.8,119.8,109.1z M131.3,125.4l-0.6-0.7c1.5-1.6,1.6-1.9,0-3.7l-4.4-5.2c-1.4-1.6-1.6-1.7-3.4-0.6l-0.5-0.6
		c1.2-1.4,2.3-2.9,3.1-4.3l7.5,8.8c1.5,1.8,1.8,1.8,3.7,0.5l0.6,0.7L131.3,125.4z"/>
	<path d="M146.5,108.3c0.1,2.5-0.7,5.2-2.2,6.5c-3.4,2.9-7.7,2-10-0.8c-1.7-2-2.3-4.5-1.6-7.3c0.5-2.3,1.8-4.1,2.8-4.9l0,0
		c1.1-0.9,2.2-1.3,2.9-1.3c0.6,0,0.9,0.1,1.1,0.4c0.5,0.6,0.4,1.7,0.1,2c-0.2,0.1-0.3,0.2-0.8,0.1c-1.5,0-2.7,0.4-3.6,1.2
		c-1.6,1.4-2,4,0.4,6.7c3,3.5,6.6,2.5,8,1.3c1.1-0.9,1.7-2,2-4.1L146.5,108.3z"/>
	<path d="M166.9,87.6c0.7,1.1,2.2,3.9,2.7,5l-12.9,11.1l-0.6-0.7c2.2-2.2,2.2-2.7,0.4-4.8l-8.6-10.1c-2-2.4-2.3-2.2-4.5-0.7
		l-0.7-0.8l11.9-10.2c0.6,0.6,2.2,2.3,3.5,3.6l-0.7,0.8c-1.2-0.9-2-1.2-2.8-1.5c-0.9-0.2-1.7,0.2-3.6,1.8l-2,1.7
		c-0.9,0.7-0.9,0.9-0.2,1.6l5,5.8l2.4-2.1c2.4-2,2.4-2.4,1.2-4.4l0.8-0.7l4.3,5.1l-0.8,0.7c-2-1.6-2.3-1.5-4.6,0.4l-2.4,2.1l4.1,4.7
		c1,1.2,1.7,1.7,2.4,1.6c0.8-0.1,1.8-1,3-2c1.9-1.6,2.6-2.5,2.6-3.7c0-0.9-0.3-2.3-0.8-3.6L166.9,87.6z"/>
	<path d="M179.4,84.2l-0.6-0.7c1.4-1.4,1.4-1.8-0.2-3.6l-3.6-4.2c-1.5-1.8-3.2-2.3-4.8-0.9c-1,0.8-1.4,2.3-1.7,3.6l5.1,6
		c1.5,1.8,1.7,1.7,3.4,0.6l0.6,0.7l-5.8,5l-0.6-0.7c1.6-1.7,1.6-2,0.1-3.7l-4.4-5.2c-1.4-1.7-1.7-1.6-3.3-0.7l-0.6-0.7
		c1.1-1.3,2.2-2.8,2.9-4.3l1.8,2.1c0.2-0.8,0.4-1.7,0.7-2.7c0.3-1.1,0.7-2,1.5-2.6c2.1-1.8,4.7-1.5,6.8,1.1l4.1,4.8
		c1.5,1.8,1.7,1.7,3.4,0.6l0.6,0.7L179.4,84.2z"/>
	<path d="M188.4,57.3c0.2,0.6,0.2,1.7,0,2.3l-1.5,1.2c0.9,0.2,1.9,0.7,2.7,1.6c2.4,2.7,1.1,6.1-1.2,8.1c-0.5,0.4-1,0.7-1.5,1.1
		c-0.1,0.5-0.1,1.2,0.2,1.5c0.4,0.5,1.3,0.6,2.5-0.4c0.9-0.8,1.8-1.6,2.7-2.4c1.6-1.4,4.2-2.8,6.5-0.2c2.3,2.7,1.3,7.9-2.2,10.9
		c-3,2.6-6,2.2-7.3,0.8c-0.5-0.6-0.7-1.3-0.6-2.1c0.1-1,0.5-2.5,0.6-3.5c-1.2,0.5-2.3,0.5-3.2,0.3c-0.6-0.2-1.1-0.6-1.3-0.9
		c0.7-1.3,1-2.7,1-3.5c-1.7,0.5-3.8,0.2-5.3-1.5c-2.5-3-1-6.6,1.1-8.4l0,0c0.9-0.7,1.9-1.2,3.1-1.5c1.3-1.2,2.5-2.5,3.4-3.5
		L188.4,57.3z M182.1,63.3c-1.1,0.9-1.2,2.8,0.5,4.8c1.7,2,3.9,2.6,5.3,1.4c1.1-1,1.2-2.8-0.5-4.8C185.7,62.7,183.6,62,182.1,63.3
		L182.1,63.3z M192.1,74c-1.2,1-1.7,1.7-1.8,2.5c-0.2,1.1-0.1,2.2,0.5,2.9c1.2,1.4,3.6,1.3,5.6-0.5c2.4-2,2.6-4.4,1.2-5.9
		c-0.8-0.9-1.8-1.2-2.8-0.8C194,72.5,193.2,73.1,192.1,74L192.1,74z"/>
	<path d="M198.4,67.9l-0.6-0.7c1.5-1.6,1.6-1.9,0.1-3.7l-10.4-12.1c-1.5-1.7-1.7-1.6-3.5-0.4l-0.5-0.6c1.3-1.4,2.6-3.3,3.3-4.4
		l13.3,15.6c1.5,1.7,1.9,1.7,3.7,0.4l0.6,0.7L198.4,67.9z"/>
	<path d="M194.1,45.4c-0.7-0.8-0.6-2,0.2-2.7c0.8-0.7,1.9-0.6,2.6,0.3c0.6,0.7,0.6,1.9-0.2,2.6C195.9,46.2,194.7,46.2,194.1,45.4z
		 M205.6,61.7l-0.6-0.7c1.5-1.6,1.6-1.9,0-3.7l-4.4-5.2c-1.4-1.6-1.6-1.7-3.4-0.6l-0.5-0.6c1.2-1.4,2.3-2.9,3.1-4.3l7.5,8.8
		c1.5,1.8,1.8,1.8,3.7,0.5l0.6,0.7L205.6,61.7z"/>
	<path d="M212.8,41.6c-1.8-1.1-3.6-1.4-4.9-0.3c-1,0.8-1,2.1-0.2,3.1c0.9,1.1,2.4,0.8,4,0.3c2.7-0.9,4.8-1.1,6.4,0.7
		c2.1,2.4,0.9,5.5-1.3,7.4c-1.4,1.2-3,1.7-3.8,1.8c-0.5-0.2-2.3-1.8-3.2-2.8l0.6-0.7c2,1.3,4.5,1.8,6,0.5c1-0.8,1.2-2.3,0.3-3.3
		c-0.9-1.1-2.1-1.1-3.9-0.5c-2.1,0.6-4.7,1.3-6.4-0.8c-1.6-1.8-1.3-4.7,1.2-6.9c1.1-1,2-1.3,2.8-1.6c0.7,0.4,2.4,1.7,3,2.3
		L212.8,41.6z"/>
	<path d="M229.5,41.3l-0.6-0.7c1.3-1.4,1.4-1.8,0-3.5l-3.6-4.2c-1.8-2.1-3.6-2.4-5.2-1c-1,0.8-1.5,2.1-1.6,3.5l5.2,6.1
		c1.4,1.6,1.7,1.7,3.4,0.6l0.6,0.7l-5.7,4.9l-0.6-0.7c1.4-1.5,1.5-1.9,0.1-3.5L211,31.2c-1.4-1.6-1.5-1.6-3.3-0.4l-0.5-0.6
		c1.1-1.2,2.4-3.1,3.2-4.3l7.4,8.6c0.2-1.8,0.8-3.9,2.2-5.1c2.1-1.8,4.8-1.8,7.5,1.3l3.8,4.4c1.5,1.7,1.8,1.7,3.4,0.6l0.6,0.7
		L229.5,41.3z"/>
</g>
</svg>
